<svg width="423" height="116" viewBox="0 0 423 116" fill="none" xmlns="http://www.w3.org/2000/svg">
<mask id="path-1-inside-1_92_29" fill="white">
<path d="M378.49 0C403.072 0 423 19.9278 423 44.5098C423 69.0916 403.072 89.0186 378.49 89.0186H63.2383C62.9374 89.9291 62.4606 90.8142 61.7939 91.6309L45.0166 112.181C40.4912 117.724 31.5669 115.411 30.7559 108.485L28.1104 85.8994C11.6444 79.3699 0.000111904 63.3001 0 44.5098C0 19.9278 19.9278 0 44.5098 0H378.49Z"/>
</mask>
<path d="M378.49 0C403.072 0 423 19.9278 423 44.5098C423 69.0916 403.072 89.0186 378.49 89.0186H63.2383C62.9374 89.9291 62.4606 90.8142 61.7939 91.6309L45.0166 112.181C40.4912 117.724 31.5669 115.411 30.7559 108.485L28.1104 85.8994C11.6444 79.3699 0.000111904 63.3001 0 44.5098C0 19.9278 19.9278 0 44.5098 0H378.49Z" fill="white" fill-opacity="0.8"/>
<path d="M423 44.5098L427 44.5098V44.5098H423ZM63.2383 89.0186V85.0186H60.3473L59.4402 87.7636L63.2383 89.0186ZM61.7939 91.6309L64.8924 94.1605L64.8925 94.1605L61.7939 91.6309ZM45.0166 112.181L48.1151 114.71L48.1151 114.71L45.0166 112.181ZM30.7559 108.485L34.7287 108.02L34.7287 108.02L30.7559 108.485ZM28.1104 85.8994L32.0832 85.4341L31.8053 83.0616L29.5848 82.1811L28.1104 85.8994ZM0 44.5098H-4V44.5098L0 44.5098ZM378.49 0V4C400.863 4 419 22.137 419 44.5098H423H427C427 17.7187 405.281 -4 378.49 -4V0ZM423 44.5098L419 44.5097C419 66.8823 400.863 85.0186 378.49 85.0186V89.0186V93.0186C405.281 93.0186 427 71.3008 427 44.5098L423 44.5098ZM378.49 89.0186V85.0186H63.2383V89.0186V93.0186H378.49V89.0186ZM63.2383 89.0186L59.4402 87.7636C59.2934 88.208 59.0544 88.6615 58.6954 89.1012L61.7939 91.6309L64.8925 94.1605C65.8669 92.967 66.5814 91.6503 67.0363 90.2735L63.2383 89.0186ZM61.7939 91.6309L58.6954 89.1012L41.9181 109.651L45.0166 112.181L48.1151 114.71L64.8924 94.1605L61.7939 91.6309ZM45.0166 112.181L41.9181 109.651C39.3616 112.782 35.0806 111.025 34.7287 108.02L30.7559 108.485L26.783 108.951C28.0531 119.797 41.6208 122.665 48.1151 114.71L45.0166 112.181ZM30.7559 108.485L34.7287 108.02L32.0832 85.4341L28.1104 85.8994L24.1375 86.3648L26.783 108.951L30.7559 108.485ZM28.1104 85.8994L29.5848 82.1811C14.5914 76.2355 4.0001 61.605 4 44.5097L0 44.5098L-4 44.5098C-3.99988 64.9953 8.69737 82.5043 26.6359 89.6177L28.1104 85.8994ZM0 44.5098H4C4 22.137 22.137 4 44.5098 4V0V-4C17.7187 -4 -4 17.7187 -4 44.5098H0ZM44.5098 0V4H378.49V0V-4H44.5098V0Z" fill="#FFD100" mask="url(#path-1-inside-1_92_29)"/>
</svg>
